/* XPM */
static char* we[] = {
"64 64 2 1",
" 	c #f707f3",
"X	c #000000",
"                                                                ",
"                                                                ",
"                                                                ",
"                                                                ",
"                                                                ",
"                                                                ",
"                                                                ",
"                                                                ",
"                                                                ",
"                                                                ",
"                                                                ",
"                                                                ",
"                                                                ",
"                                                                ",
"                                                                ",
"                                                                ",
"                                                                ",
"                                                                ",
"                                                                ",
"                                                                ",
"      XXX          XXXXX          XXX  XXXXXXXXXXXXXXX          ",
"      XXX          XXXXX          XXX  XXXXXXXXXXXXXXX          ",
"       XXX         XXXXX         XXX   XXXXXXXXXXXXXXX          ",
"       XXX        XXX XXX        XXX   XXX                      ",
"       XXX        XXX XXX        XXX   XXX                      ",
"       XXX        XXX XXX        XXX   XXX                      ",
"       XXX       XXX   XXX      XXXX   XXX                      ",
"        XXX      XXX   XXX      XXX    XXX                      ",
"        XXX      XXX   XXX      XXX    XXX                      ",
"        XXX      XXX   XXX      XXX    XXXXXXXXXXXXXX           ",
"        XXX     XXX     XXX     XXX    XXXXXXXXXXXXXX           ",
"         XXX    XXX     XXX    XXX     XXXXXXXXXXXXXX           ",
"         XXX    XXX     XXX    XXX     XXX                      ",
"         XXX   XXX       XXX   XXX     XXX                      ",
"         XXX   XXX       XXX   XXX     XXX                      ",
"          XXX  XXX       XXX  XXXX     XXX                      ",
"          XXX XXX         XXX XXX      XXX                      ",
"          XXX XXX         XXX XXX      XXX                      ",
"          XXX XXX         XXX XXX      XXX                      ",
"          XXX XXX         XXX XXX      XXX                      ",
"           XXXXX           XXXXX       XXXXXXXXXXXXXXXX         ",
"           XXXXX           XXXXX       XXXXXXXXXXXXXXXX         ",
"           XXXXX           XXXXX       XXXXXXXXXXXXXXXX         ",
"                                                                ",
"                                                                ",
"                                                                ",
"                                                                ",
"                                                                ",
"                                                                ",
"                                                                ",
"                                                                ",
"                                                                ",
"                                                                ",
"                                                                ",
"                                                                ",
"                                                                ",
"                                                                ",
"                                                                ",
"                                                                ",
"                                                                ",
"                                                                ",
"                                                                ",
"                                                                ",
"                                                                "};